<?xml version="1.0" standalone="no"?>
<!DOCTYPE svg PUBLIC "-//W3C//DTD SVG 20010904//EN"
 "http://www.w3.org/TR/2001/REC-SVG-20010904/DTD/svg10.dtd">
<svg version="1.0" xmlns="http://www.w3.org/2000/svg"
 width="275.000000pt" height="275.000000pt" viewBox="0 0 275.000000 275.000000"
 preserveAspectRatio="xMidYMid meet">
<metadata>
Created by potrace 1.11, written by Peter Selinger 2001-2013
</metadata>
<g transform="translate(0.000000,275.000000) scale(0.100000,-0.100000)"
fill="#000000" stroke="none">
<path d="M1319 2730 c-63 -17 -113 -62 -128 -115 -21 -77 16 -167 83 -199 28
-13 36 -23 37 -44 2 -130 -1 -314 -6 -322 -3 -6 -19 -10 -34 -10 -53 0 -240
-70 -261 -98 -3 -4 -14 -15 -26 -24 -20 -17 -22 -17 -77 37 l-56 55 20 45 c39
89 14 218 -54 276 -119 103 -296 75 -374 -58 -106 -182 72 -409 275 -350 20 6
46 17 56 23 17 12 25 7 74 -42 l54 -54 -42 -65 c-48 -74 -84 -166 -95 -241
l-6 -51 -139 1 c-76 1 -140 3 -142 6 -2 3 -16 23 -30 46 -72 113 -250 93 -293
-33 -39 -113 45 -229 162 -224 56 2 107 33 138 84 l24 42 140 0 139 0 10 -61
c13 -79 50 -170 97 -239 l38 -54 -63 -65 c-62 -63 -65 -64 -91 -51 -80 42
-179 25 -245 -40 -51 -51 -68 -99 -61 -172 12 -130 141 -217 268 -183 62 17
133 92 147 155 11 53 7 97 -14 139 -14 28 -13 30 33 81 75 81 81 83 139 43 78
-55 178 -94 252 -100 19 -1 36 -6 39 -10 4 -7 6 -159 4 -309 -1 -34 -4 -37
-49 -54 -154 -59 -200 -255 -89 -382 86 -98 246 -106 341 -17 74 70 98 188 55
279 -26 55 -89 112 -141 126 l-38 10 0 174 c0 173 0 175 23 179 108 21 141 30
193 55 32 16 76 42 98 58 l39 30 23 -22 c13 -12 24 -26 24 -30 0 -5 -12 -33
-27 -64 -22 -46 -27 -70 -27 -136 0 -67 4 -89 27 -137 100 -206 376 -244 526
-72 51 57 74 118 77 199 3 99 -23 164 -96 237 -64 63 -132 91 -227 91 -54 0
-136 -25 -165 -51 -16 -14 -20 -13 -40 4 -38 31 -38 35 2 93 46 69 86 169 96
238 8 62 7 61 128 59 l89 -1 14 -40 c67 -203 358 -214 445 -17 38 86 20 193
-45 260 -125 131 -344 85 -402 -84 l-13 -39 -105 0 -105 -1 -6 53 c-8 73 -41
156 -92 234 l-42 67 81 81 c66 66 84 78 95 68 24 -20 125 -13 164 11 43 27 79
90 80 141 2 146 -170 229 -281 135 -56 -47 -75 -120 -50 -192 10 -30 8 -33
-67 -111 l-78 -80 -46 33 c-78 57 -149 85 -282 111 l-28 5 0 173 0 173 34 17
c19 8 47 33 63 53 24 32 28 47 28 98 0 66 -21 108 -69 139 -33 22 -95 35 -127
27z"/>
</g>
</svg>
